<?xml version="1.0" encoding="UTF-8"?>
<svg width="850px" height="150px" viewBox="0 0 850 150" version="1.1" xmlns="http://www.w3.org/2000/svg" xmlns:xlink="http://www.w3.org/1999/xlink">
    <!-- Generator: Sketch 46.1 (44463) - http://www.bohemiancoding.com/sketch -->
    <title>logo</title>
    <desc>Created with Sketch.</desc>
    <defs>
        <path d="M36.5,1.95893649e-15 L60.5722556,1.95893649e-15 L60.5722556,-7.10542736e-15 C82.1113608,-1.10618979e-14 99.5722556,17.4608948 99.5722556,39 L99.5722556,44.290832 C99.7329312,51.1914512 100.803619,56.4527236 102.784319,60.0746491 C104.765019,63.6965746 108.503579,68.0050249 114,73 L99.5722556,73 L36.5,73 L36.5,73 C16.3416066,73 2.46869119e-15,56.6583934 0,36.5 L0,36.5 L0,36.5 C-2.46869119e-15,16.3416066 16.3416066,1.79140557e-14 36.5,1.42108547e-14 L36.5,1.95893649e-15 Z M34.5418656,21.1594203 C33.0811125,21.1594203 31.8969381,22.3435947 31.8969381,23.8043478 C31.8969381,25.265101 33.0811125,26.4492754 34.5418656,26.4492754 L73.7417418,26.4492754 C75.2024949,26.4492754 76.3866693,25.265101 76.3866693,23.8043478 C76.3866693,22.3435947 75.2024949,21.1594203 73.7417418,21.1594203 L34.5418656,21.1594203 Z M23.8897931,33.8550725 C22.42904,33.8550725 21.2448656,35.0392469 21.2448656,36.5 L21.2448656,36.5 L21.2448656,36.5 C21.2448656,37.9607531 22.42904,39.1449275 23.8897931,39.1449275 L63.0896693,39.1449275 C64.5504224,39.1449275 65.7345968,37.9607531 65.7345968,36.5 L65.7345968,36.5 C65.7345968,35.0392469 64.5504224,33.8550725 63.0896693,33.8550725 L63.0896693,33.8550725 L23.8897931,33.8550725 Z M34.5418656,46.5507246 C33.0811125,46.5507246 31.8969381,47.734899 31.8969381,49.1956522 L31.8969381,49.1956522 L31.8969381,49.1956522 C31.8969381,50.6564053 33.0811125,51.8405797 34.5418656,51.8405797 L73.7417418,51.8405797 C75.2024949,51.8405797 76.3866693,50.6564053 76.3866693,49.1956522 C76.3866693,47.734899 75.2024949,46.5507246 73.7417418,46.5507246 L34.5418656,46.5507246 Z" id="path-1"></path>
        <linearGradient x1="50%" y1="0%" x2="50%" y2="99.2426658%" id="linearGradient-3">
            <stop stop-color="#4EF46A" offset="0%"></stop>
            <stop stop-color="#3DBE52" offset="100%"></stop>
        </linearGradient>
    </defs>
    <g id="Page-1" stroke="none" stroke-width="1" fill="none" fill-rule="evenodd">
        <g id="logo">
            <g id="Group" transform="translate(313.000000, 29.000000)" fill="#000000">
                <text id="MessageKit" font-family="SFProDisplay-Regular, SF Pro Display" font-size="55" font-weight="normal">
                    <tspan x="0" y="52">MessageKit</tspan>
                </text>
                <text id="An-elegant-messages-U" font-family="SFProDisplay-Thin, SF Pro Display" font-size="25" font-style="condensed" font-weight="300">
                    <tspan x="0" y="86">An elegant messages UI library for iOS</tspan>
                </text>
            </g>
            <g id="Rectangle-3" transform="translate(175.000000, 39.000000)">
                <mask id="mask-2" fill="white">
                    <use xlink:href="#path-1"></use>
                </mask>
                <use id="Mask" fill="#000000" xlink:href="#path-1"></use>
                <rect fill="url(#linearGradient-3)" mask="url(#mask-2)" x="0" y="-20" width="114" height="112"></rect>
            </g>
        </g>
    </g>
</svg>
